<svg version="1.1" id="Capa_1" xmlns="http://www.w3.org/2000/svg" x="0" y="0" width="559.98" height="559.98" xml:space="preserve"><path d="M463.957 28.89c-15.982-10.634-40.086-9.752-58.18-7.516-23.189 2.867-45.07 10.903-64.6 23.761-30.648 20.178-51.004 51.739-59.658 86.623-8.653-34.884-29.008-66.445-59.657-86.626-19.529-12.857-41.411-20.894-64.6-23.761-18.091-2.236-42.198-3.118-58.18 7.516-48.186 32.057-2.112 82.99 29.155 107.188a218.012 218.012 0 0039.903 24.505h226.761a217.971 217.971 0 0039.902-24.505c31.265-24.195 77.34-75.131 29.154-107.185zm-296.156 79.346c-11.671-7.727-22.485-16.561-31.895-26.974-1.628-1.803-8.503-10.903-11.64-13.333 1.484-.462 3.507-1.294 4.385-1.361 48.005-3.604 91.179 24.104 106.1 67.455-23.81-3.719-46.806-12.455-66.95-25.787zm259.332-26.974c-9.408 10.413-20.223 19.247-31.895 26.974-20.143 13.336-43.143 22.072-66.949 25.787 14.92-43.352 58.094-71.06 106.1-67.455.879.067 2.904.899 4.385 1.361-3.137 2.43-10.012 11.53-11.641 13.333zM330.48 402.324h229.5v137.7h-229.5zm229.5-226.441h-229.5v137.7h229.5zM0 313.583h229.5v-137.7H0zm0 88.741h229.5v137.7H0z"/></svg>